<?xml version="1.0" encoding="UTF-8" standalone="no"?>
<!DOCTYPE svg PUBLIC "-//W3C//DTD SVG 1.1//EN" "http://www.w3.org/Graphics/SVG/1.1/DTD/svg11.dtd">
<svg version="1.1" xmlns="http://www.w3.org/2000/svg" xmlns:xlink="http://www.w3.org/1999/xlink" preserveAspectRatio="xMidYMid meet" viewBox="0 0 640 640" width="640" height="640"><defs><path d="M389.32 549.85C251.53 624.51 144.58 644.81 75.9 607.1C7.22 569.39 74.65 471.46 75.07 321.39C75.48 171.32 -61.67 20.87 75.9 21.25C137.81 21.42 252.05 58.78 389.41 134.2C526.78 209.62 625.48 281.65 625.37 322.92C625.16 397.96 527.1 475.2 389.32 549.85Z" id="a7tl16OLw"></path><path d="M312.75 193.91C327.66 193.91 339.75 206 339.75 220.91C339.75 235.65 339.75 272.5 339.75 331.47C339.75 379.56 339.75 409.61 339.75 421.64C339.75 438.93 325.73 452.95 308.43 452.95C299.89 452.95 302.17 452.95 292.77 452.95C277.84 452.95 265.73 440.85 265.73 425.92C265.73 379.52 265.73 272.53 265.73 227.42C265.73 208.91 280.74 193.91 299.25 193.91C307.35 193.91 303.35 193.91 312.75 193.91Z" id="fCmkTzsnd"></path><path d="M432.2 334.96C432.1 349.87 419.93 361.88 405.02 361.78C390.28 361.68 353.43 361.43 294.46 361.03C246.37 360.71 216.32 360.51 204.3 360.43C187 360.31 173.07 346.2 173.19 328.9C173.25 320.36 173.23 322.64 173.3 313.24C173.4 298.31 185.58 286.29 200.51 286.39C246.92 286.7 353.9 287.42 399 287.72C417.51 287.85 432.42 302.95 432.29 321.46C432.24 329.56 432.27 325.56 432.2 334.96Z" id="b5UhGuQOFC"></path><path d="M270.51 275.77L334.98 275.77L334.98 371.09L270.51 371.09L270.51 275.77Z" id="a4H4P5oOJ"></path></defs><g><g><g><g><filter id="shadow12503359" x="5.63" y="12.25" width="629.73" height="623.36" filterUnits="userSpaceOnUse" primitiveUnits="userSpaceOnUse"><feFlood></feFlood><feComposite in2="SourceAlpha" operator="in"></feComposite><feGaussianBlur stdDeviation="1"></feGaussianBlur><feOffset dx="1" dy="1" result="afterOffset"></feOffset><feFlood flood-color="#000000" flood-opacity="0.5"></feFlood><feComposite in2="afterOffset" operator="in"></feComposite><feMorphology operator="dilate" radius="1"></feMorphology><feComposite in2="SourceAlpha" operator="out"></feComposite></filter><path d="M389.32 549.85C251.53 624.51 144.58 644.81 75.9 607.1C7.22 569.39 74.65 471.46 75.07 321.39C75.48 171.32 -61.67 20.87 75.9 21.25C137.81 21.42 252.05 58.78 389.41 134.2C526.78 209.62 625.48 281.65 625.37 322.92C625.16 397.96 527.1 475.2 389.32 549.85Z" id="bKlqOPIHN" fill="white" fill-opacity="1" filter="url(#shadow12503359)"></path></g><use xlink:href="#a7tl16OLw" opacity="1" fill="#3f3b51" fill-opacity="1"></use><g><use xlink:href="#a7tl16OLw" opacity="1" fill-opacity="0" stroke="#ffffff" stroke-width="20" stroke-opacity="1"></use></g><g><filter id="shadow1934291" x="5.63" y="12.25" width="629.73" height="623.36" filterUnits="userSpaceOnUse" primitiveUnits="userSpaceOnUse"><feFlood></feFlood><feComposite in2="SourceAlpha" operator="out"></feComposite><feGaussianBlur stdDeviation="1"></feGaussianBlur><feOffset dx="1" dy="1" result="afterOffset"></feOffset><feFlood flood-color="#ffffff" flood-opacity="0.8"></feFlood><feComposite in2="afterOffset" operator="in"></feComposite><feMorphology operator="dilate" radius="1"></feMorphology><feComposite in2="SourceAlpha" operator="in"></feComposite></filter><path d="M389.32 549.85C251.53 624.51 144.58 644.81 75.9 607.1C7.22 569.39 74.65 471.46 75.07 321.39C75.48 171.32 -61.67 20.87 75.9 21.25C137.81 21.42 252.05 58.78 389.41 134.2C526.78 209.62 625.48 281.65 625.37 322.92C625.16 397.96 527.1 475.2 389.32 549.85Z" id="e18LFiBh5O" fill="white" fill-opacity="1" filter="url(#shadow1934291)"></path></g></g><g><use xlink:href="#fCmkTzsnd" opacity="1" fill="#78d0d3" fill-opacity="1"></use><g><use xlink:href="#fCmkTzsnd" opacity="1" fill-opacity="0" stroke="#ffffff" stroke-width="10" stroke-opacity="1"></use></g></g><g><use xlink:href="#b5UhGuQOFC" opacity="1" fill="#78d0d3" fill-opacity="1"></use><g><use xlink:href="#b5UhGuQOFC" opacity="1" fill-opacity="0" stroke="#ffffff" stroke-width="10" stroke-opacity="1"></use></g></g><g><use xlink:href="#a4H4P5oOJ" opacity="1" fill="#78d0d3" fill-opacity="1"></use></g></g></g></svg>