<?xml version="1.0" encoding="UTF-8" standalone="no"?>
<!DOCTYPE svg PUBLIC "-//W3C//DTD SVG 1.1//EN" "http://www.w3.org/Graphics/SVG/1.1/DTD/svg11.dtd">
<svg version="1.1" xmlns="http://www.w3.org/2000/svg" xmlns:xlink="http://www.w3.org/1999/xlink" preserveAspectRatio="xMidYMid meet" viewBox="0 0 640 640" width="640" height="640"><defs><path d="M28.74 26.46L611.26 26.46L611.26 613.54L28.74 613.54L28.74 26.46Z" id="ayv8jBGpv"></path><path d="M611.26 317.72C611.26 478.48 480.75 608.99 320 608.99C159.25 608.99 28.74 478.48 28.74 317.72C28.74 156.97 159.25 26.46 320 26.46C480.75 26.46 611.26 156.97 611.26 317.72Z" id="b2DkHN8Ps4"></path><path d="M450.16 317.72C450.16 389.56 391.84 447.88 320 447.88C248.16 447.88 189.84 389.56 189.84 317.72C189.84 245.89 248.16 187.57 320 187.57C391.84 187.57 450.16 245.89 450.16 317.72Z" id="b7BlNaSF5P"></path><path d="M374.61 317.72C374.61 347.87 350.14 372.34 320 372.34C289.86 372.34 265.39 347.87 265.39 317.72C265.39 287.58 289.86 263.11 320 263.11C350.14 263.11 374.61 287.58 374.61 317.72Z" id="dNEj06JrQ"></path></defs><g><g><g></g><g><use xlink:href="#b2DkHN8Ps4" opacity="1" fill="#3f3b51" fill-opacity="1"></use><g><use xlink:href="#b2DkHN8Ps4" opacity="1" fill-opacity="0" stroke="#78d0d3" stroke-width="20" stroke-opacity="1"></use></g></g><g><use xlink:href="#b7BlNaSF5P" opacity="1" fill="#78d0d3" fill-opacity="1"></use><g><use xlink:href="#b7BlNaSF5P" opacity="1" fill-opacity="0" stroke="#3f3b51" stroke-width="20" stroke-opacity="1"></use></g></g><g><use xlink:href="#dNEj06JrQ" opacity="1" fill="#ffffff" fill-opacity="1"></use><g><use xlink:href="#dNEj06JrQ" opacity="1" fill-opacity="0" stroke="#3f3b51" stroke-width="20" stroke-opacity="1"></use></g></g></g></g></svg>