<?xml version="1.0" encoding="UTF-8" standalone="no"?>
<!DOCTYPE svg PUBLIC "-//W3C//DTD SVG 1.1//EN" "http://www.w3.org/Graphics/SVG/1.1/DTD/svg11.dtd">
<svg version="1.1" xmlns="http://www.w3.org/2000/svg" xmlns:xlink="http://www.w3.org/1999/xlink" preserveAspectRatio="xMidYMid meet" viewBox="0 0 640 640" width="640" height="640"><defs><path d="M500.16 180.83C500.16 277.11 421.74 355.27 325.15 355.27C228.56 355.27 150.14 277.11 150.14 180.83C150.14 84.55 228.56 6.38 325.15 6.38C421.74 6.38 500.16 84.55 500.16 180.83Z" id="b15qOQZrBy"></path><path d="M614.14 438.53C614.14 549.73 482.34 640 320 640C157.66 640 25.86 549.73 25.86 438.53C25.86 327.34 157.66 237.07 320 237.07C482.34 237.07 614.14 327.34 614.14 438.53Z" id="b2etbECVkb"></path><path d="M544.11 478.28C544.11 559.04 443.69 624.62 320 624.62C196.31 624.62 95.89 559.04 95.89 478.28C95.89 397.51 196.31 331.94 320 331.94C443.69 331.94 544.11 397.51 544.11 478.28Z" id="b40xDoF4"></path><path d="M469.39 182.83C469.39 262.18 404.76 326.6 325.15 326.6C245.54 326.6 180.91 262.18 180.91 182.83C180.91 103.48 245.54 39.05 325.15 39.05C404.76 39.05 469.39 103.48 469.39 182.83Z" id="dxeI8nqFU"></path></defs><g><g><g><use xlink:href="#b15qOQZrBy" opacity="1" fill="#78d0d3" fill-opacity="1"></use></g><g><use xlink:href="#b2etbECVkb" opacity="1" fill="#78d0d3" fill-opacity="1"></use></g><g><use xlink:href="#b40xDoF4" opacity="1" fill="#50344d" fill-opacity="1"></use></g><g><use xlink:href="#dxeI8nqFU" opacity="1" fill="#50344d" fill-opacity="1"></use></g></g></g></svg>