<?xml version="1.0" encoding="UTF-8" standalone="no"?>
<!DOCTYPE svg PUBLIC "-//W3C//DTD SVG 1.1//EN" "http://www.w3.org/Graphics/SVG/1.1/DTD/svg11.dtd">
<svg version="1.1" xmlns="http://www.w3.org/2000/svg" xmlns:xlink="http://www.w3.org/1999/xlink" preserveAspectRatio="xMidYMid meet" viewBox="0 0 640 640" width="640" height="640"><defs><path d="M529.3 201.74C539.29 201.74 546.99 210.52 545.69 220.41C536.01 294.38 509.39 497.6 499.7 571.56C498.3 582.25 489.2 590.24 478.42 590.24C413.76 590.24 238.63 590.24 173.98 590.24C163.14 590.24 153.92 582.33 152.28 571.62C140.94 497.64 109.78 294.33 98.45 220.36C96.94 210.56 104.52 201.74 114.43 201.74C201.17 201.74 442.56 201.74 529.3 201.74Z" id="byUwtnhTM"></path><path d="M572.16 94.94C583.21 94.94 592.16 103.9 592.16 114.94C592.16 128.41 592.16 148.83 592.16 162.3C592.16 173.34 583.21 182.3 572.16 182.3C468.11 182.3 175.98 182.3 71.93 182.3C60.89 182.3 51.93 173.34 51.93 162.3C51.93 148.83 51.93 128.41 51.93 114.94C51.93 103.9 60.89 94.94 71.93 94.94C175.98 94.94 468.11 94.94 572.16 94.94Z" id="aTVUnWBXI"></path><path d="M376.99 47.13C380.71 47.13 383.72 50.14 383.72 53.86C383.72 59.41 383.72 69.33 383.72 74.88C383.72 78.6 380.71 81.61 376.99 81.61C352.13 81.61 284.28 81.61 259.42 81.61C255.7 81.61 252.69 78.6 252.69 74.88C252.69 69.33 252.69 59.41 252.69 53.86C252.69 50.14 255.7 47.13 259.42 47.13C284.28 47.13 352.13 47.13 376.99 47.13Z" id="f25K5ytJyj"></path><path d="M467.76 262.04C474.79 262.04 480.21 268.23 479.28 275.2C472.46 326.15 453.75 465.83 446.93 516.77C445.92 524.31 439.49 529.94 431.89 529.94C386.31 529.94 262.85 529.94 217.27 529.94C209.62 529.94 203.12 524.37 201.93 516.82C193.95 465.86 172.05 326.11 164.07 275.16C162.99 268.27 168.32 262.04 175.29 262.04C236.44 262.04 406.61 262.04 467.76 262.04Z" id="a7wOmWQI"></path></defs><g><g><g><use xlink:href="#byUwtnhTM" opacity="1" fill="#3f3b51" fill-opacity="1"></use></g><g><use xlink:href="#aTVUnWBXI" opacity="1" fill="#3f3b51" fill-opacity="1"></use></g><g><use xlink:href="#f25K5ytJyj" opacity="1" fill="#3f3b51" fill-opacity="1"></use></g><g><use xlink:href="#a7wOmWQI" opacity="1" fill="#78d0d3" fill-opacity="1"></use></g></g></g></svg>