<?xml version="1.0" encoding="UTF-8" standalone="no"?>
<!DOCTYPE svg PUBLIC "-//W3C//DTD SVG 1.1//EN" "http://www.w3.org/Graphics/SVG/1.1/DTD/svg11.dtd">
<svg version="1.1" xmlns="http://www.w3.org/2000/svg" xmlns:xlink="http://www.w3.org/1999/xlink" preserveAspectRatio="xMidYMid meet" viewBox="0 0 640 640" width="640" height="640"><defs><path d="M547.2 196.78C554.55 204.13 554.55 216.04 547.2 223.39C486.44 284.15 317.48 453.11 256.72 513.87C249.38 521.21 237.46 521.21 230.12 513.87C206.04 489.78 147.09 430.84 123.01 406.76C115.67 399.42 115.67 387.5 123.01 380.16C183.77 319.4 352.73 150.44 413.49 89.68C420.84 82.33 432.75 82.33 440.1 89.68C464.18 113.76 523.12 172.7 547.2 196.78Z" id="d2dF4kyo9"></path><path d="M630.38 120.86C636.18 126.66 636.18 136.06 630.38 141.85C619.49 152.74 597.31 174.93 586.42 185.82C580.62 191.61 571.22 191.61 565.43 185.82C540.78 161.18 477.35 97.74 452.71 73.1C446.91 67.3 446.91 57.9 452.71 52.11C463.6 41.22 485.78 19.03 496.67 8.14C502.47 2.35 511.87 2.35 517.66 8.14C542.31 32.79 605.74 96.22 630.38 120.86Z" id="b6QjwSHCdu"></path><path d="M158.71 470.81C187.95 500.62 206.22 519.25 213.53 526.7C219.7 532.99 217.17 543.56 208.83 546.39C103.25 582.12 45.48 594.91 35.53 584.76C25.39 574.41 43.05 519.19 88.5 419.08C91.47 412.52 100.11 411 105.15 416.14C112.29 423.43 130.14 441.65 158.71 470.81Z" id="c5nZVsFLIc"></path><path d="M262.08 352.48C354.01 260.56 411.46 203.1 434.44 180.12C437.65 176.92 437.65 171.72 434.44 168.52C430.51 164.59 425.59 159.66 421.92 156C417.98 152.05 411.58 152.05 407.64 156C362.58 201.06 234.54 329.1 189.47 374.16C185.53 378.11 185.53 384.5 189.47 388.45C193.14 392.11 198.06 397.03 201.99 400.97C205.2 404.17 210.39 404.17 213.6 400.97C220.06 394.5 236.22 378.34 262.08 352.48Z" id="a2UDhliBC"></path><path d="M99.87 524.04C110.73 535.12 117.52 542.04 120.23 544.81C122.52 547.14 121.58 551.07 118.49 552.12C79.26 565.39 57.81 570.14 54.11 566.37C50.34 562.53 56.9 542.01 73.79 504.83C74.89 502.39 78.1 501.83 79.97 503.74C82.62 506.44 89.26 513.21 99.87 524.04Z" id="b1sBrpoonx"></path></defs><g><g><g><use xlink:href="#d2dF4kyo9" opacity="1" fill="#3f3b51" fill-opacity="1"></use></g><g><use xlink:href="#b6QjwSHCdu" opacity="1" fill="#3f3b51" fill-opacity="1"></use></g><g><use xlink:href="#c5nZVsFLIc" opacity="1" fill="#3f3b51" fill-opacity="1"></use></g><g><use xlink:href="#a2UDhliBC" opacity="1" fill="#78d0d3" fill-opacity="1"></use></g><g><use xlink:href="#b1sBrpoonx" opacity="1" fill="#78d0d3" fill-opacity="1"></use></g></g></g></svg>